<svg id="visual" viewBox="0 0 900 600" width="900" height="600" xmlns="http://www.w3.org/2000/svg" xmlns:xlink="http://www.w3.org/1999/xlink" version="1.1"><rect x="0" y="0" width="900" height="600" fill="#000000"></rect><path d="M0 437L129 441L257 431L386 423L514 375L643 367L771 427L900 404L900 601L771 601L643 601L514 601L386 601L257 601L129 601L0 601Z" fill="#0a0af5"></path><path d="M0 434L129 408L257 427L386 419L514 445L643 463L771 397L900 440L900 601L771 601L643 601L514 601L386 601L257 601L129 601L0 601Z" fill="#7d52fa"></path><path d="M0 444L129 477L257 476L386 454L514 471L643 499L771 437L900 485L900 601L771 601L643 601L514 601L386 601L257 601L129 601L0 601Z" fill="#b18bfd"></path><path d="M0 482L129 540L257 533L386 495L514 488L643 511L771 487L900 506L900 601L771 601L643 601L514 601L386 601L257 601L129 601L0 601Z" fill="#dbc4ff"></path><path d="M0 551L129 536L257 540L386 558L514 565L643 563L771 533L900 540L900 601L771 601L643 601L514 601L386 601L257 601L129 601L0 601Z" fill="#ffffff"></path></svg>